# xmcd CD database file
#
# Track frame offsets:
#	150
#	19600
#	34262
#	51087
#	69219
#	86792
#	106099
#	123815
#
# Disc length: 1811 seconds
#
# Revision: 0
# Processed by: cddbd v1.5.2PL0 Copyright (c) Steve Scherf et al.
# Submitted via: CDex 1.70beta2
#
DISCID=5a071108
DTITLE=Frankie Ruiz - Y La Solucion
DYEAR=1900
DGENRE=Salsa
TTITLE0=De Sentimiento Me Muero
TTITLE1=Un Mañana
TTITLE2=Del Campo Soy
TTITLE3=Soledad
TTITLE4=Salsa Buena
TTITLE5=La Fiesta No Es Para Feos
TTITLE6=Lindo Amanecer
TTITLE7=Entonces
EXTD=
EXTT0=
EXTT1=
EXTT2=
EXTT3=
EXTT4=
EXTT5=
EXTT6=
EXTT7=
PLAYORDER=
